<svg xmlns="http://www.w3.org/2000/svg" version="1.1" xmlns:xlink="http://www.w3.org/1999/xlink" xmlns:svgjs="http://svgjs.dev/svgjs" width="128" height="128" viewBox="0 0 128 128"><g transform="matrix(0.8046875,0,0,0.8046875,12.333870967741937,12.333870967741937)"><svg viewBox="0 0 155 155" data-background-color="#ffffff" preserveAspectRatio="xMidYMid meet" height="128" width="128" xmlns="http://www.w3.org/2000/svg" xmlns:xlink="http://www.w3.org/1999/xlink"><g id="tight-bounds" transform="matrix(1,0,0,1,0.25,0.25)"><svg viewBox="0 0 154.5 154.5" height="154.5" width="154.5"><g><svg></svg></g><g><svg viewBox="0 0 154.5 154.5" height="154.5" width="154.5"><g transform="matrix(1,0,0,1,62.278279819932976,59.016757278)"><svg viewBox="0 0 29.94344036013405 36.46648544399999" height="36.46648544399999" width="29.94344036013405"><g><svg viewBox="0 0 29.94344036013405 36.46648544399999" height="36.46648544399999" width="29.94344036013405"><g><svg viewBox="0 0 29.94344036013405 36.46648544399999" height="36.46648544399999" width="29.94344036013405"><g id="textblocktransform"><svg viewBox="0 0 29.94344036013405 36.46648544399999" height="36.46648544399999" width="29.94344036013405" id="textblock"><g><svg viewBox="0 0 29.94344036013405 36.46648544399999" height="36.46648544399999" width="29.94344036013405"><g><svg viewBox="0 0 29.94344036013405 36.46648544399999" height="36.46648544399999" width="29.94344036013405"><g><svg xmlns="http://www.w3.org/2000/svg" xmlns:xlink="http://www.w3.org/1999/xlink" version="1.1" x="0" y="0" viewBox="51.837 7.361000000000001 408.32599999999996 497.27799999999996" enable-background="new 0 0 512 512" xml:space="preserve" height="36.46648544399999" width="29.94344036013405" class="icon-icon-0" data-fill-palette-color="accent" id="icon-0"><path d="M119.932 136.748c5.754 0 10.419-4.665 10.419-10.419v-18.48c0-5.754-4.665-10.419-10.419-10.419s-10.419 4.665-10.419 10.419v18.48C109.513 132.083 114.178 136.748 119.932 136.748z" fill="#1000fb" data-fill-palette-color="accent"></path><path d="M168.444 136.748c5.754 0 10.419-4.665 10.419-10.419v-18.48c0-5.754-4.665-10.419-10.419-10.419s-10.419 4.665-10.419 10.419v18.48C158.025 132.083 162.69 136.748 168.444 136.748z" fill="#1000fb" data-fill-palette-color="accent"></path><path d="M219.267 136.748c5.754 0 10.419-4.665 10.419-10.419v-18.48c0-5.754-4.665-10.419-10.419-10.419s-10.419 4.665-10.419 10.419v18.48C208.848 132.083 213.513 136.748 219.267 136.748z" fill="#1000fb" data-fill-palette-color="accent"></path><path d="M267.779 136.748c5.754 0 10.419-4.665 10.419-10.419v-18.48c0-5.754-4.665-10.419-10.419-10.419s-10.419 4.665-10.419 10.419v18.48C257.36 132.083 262.025 136.748 267.779 136.748z" fill="#1000fb" data-fill-palette-color="accent"></path><path d="M119.932 192.292c5.754 0 10.419-4.665 10.419-10.419v-18.48c0-5.754-4.665-10.419-10.419-10.419s-10.419 4.665-10.419 10.419v18.48C109.513 187.627 114.178 192.292 119.932 192.292z" fill="#1000fb" data-fill-palette-color="accent"></path><path d="M168.444 192.292c5.754 0 10.419-4.665 10.419-10.419v-18.48c0-5.754-4.665-10.419-10.419-10.419s-10.419 4.665-10.419 10.419v18.48C158.025 187.627 162.69 192.292 168.444 192.292z" fill="#1000fb" data-fill-palette-color="accent"></path><path d="M219.267 192.292c5.754 0 10.419-4.665 10.419-10.419v-18.48c0-5.754-4.665-10.419-10.419-10.419s-10.419 4.665-10.419 10.419v18.48C208.848 187.627 213.513 192.292 219.267 192.292z" fill="#1000fb" data-fill-palette-color="accent"></path><path d="M267.779 192.292c5.754 0 10.419-4.665 10.419-10.419v-18.48c0-5.754-4.665-10.419-10.419-10.419s-10.419 4.665-10.419 10.419v18.48C257.36 187.627 262.025 192.292 267.779 192.292z" fill="#1000fb" data-fill-palette-color="accent"></path><path d="M354.814 293.935c5.754 0 10.419-4.664 10.419-10.419v-18.479c0-5.755-4.665-10.419-10.419-10.419s-10.42 4.664-10.42 10.419v18.479C344.395 289.271 349.061 293.935 354.814 293.935z" fill="#1000fb" data-fill-palette-color="accent"></path><path d="M403.327 293.935c5.753 0 10.419-4.664 10.419-10.419v-18.479c0-5.755-4.666-10.419-10.419-10.419-5.754 0-10.42 4.664-10.42 10.419v18.479C392.907 289.271 397.573 293.935 403.327 293.935z" fill="#1000fb" data-fill-palette-color="accent"></path><path d="M354.814 349.48c5.754 0 10.419-4.664 10.419-10.419v-18.479c0-5.755-4.665-10.419-10.419-10.419s-10.42 4.664-10.42 10.419v18.479C344.395 344.816 349.061 349.48 354.814 349.48z" fill="#1000fb" data-fill-palette-color="accent"></path><path d="M403.327 349.48c5.753 0 10.419-4.664 10.419-10.419v-18.479c0-5.755-4.666-10.419-10.419-10.419-5.754 0-10.42 4.664-10.42 10.419v18.479C392.907 344.816 397.573 349.48 403.327 349.48z" fill="#1000fb" data-fill-palette-color="accent"></path><path d="M354.814 402.774c5.754 0 10.419-4.664 10.419-10.419v-18.481c0-5.755-4.665-10.42-10.419-10.42s-10.42 4.665-10.42 10.42v18.481C344.395 398.11 349.061 402.774 354.814 402.774z" fill="#1000fb" data-fill-palette-color="accent"></path><path d="M403.327 402.774c5.753 0 10.419-4.664 10.419-10.419v-18.481c0-5.755-4.666-10.42-10.419-10.42-5.754 0-10.42 4.665-10.42 10.42v18.481C392.907 398.11 397.573 402.774 403.327 402.774z" fill="#1000fb" data-fill-palette-color="accent"></path><path d="M354.814 458.318c5.754 0 10.419-4.666 10.419-10.419v-18.481c0-5.755-4.665-10.419-10.419-10.419s-10.42 4.664-10.42 10.419v18.481C344.395 453.652 349.061 458.318 354.814 458.318z" fill="#1000fb" data-fill-palette-color="accent"></path><path d="M403.327 458.318c5.753 0 10.419-4.666 10.419-10.419v-18.481c0-5.755-4.666-10.419-10.419-10.419-5.754 0-10.42 4.664-10.42 10.419v18.481C392.907 453.652 397.573 458.318 403.327 458.318z" fill="#1000fb" data-fill-palette-color="accent"></path><path d="M449.744 217.646H318.815V62.865c0-5.754-4.665-10.419-10.419-10.419H282.26V17.78c0-5.754-4.665-10.419-10.419-10.419H115.87c-5.754 0-10.419 4.665-10.419 10.419v34.666H79.315c-5.754 0-10.419 4.665-10.419 10.419v334.421h-6.64c-5.754 0-10.419 4.664-10.419 10.419v33.713c0 5.753 4.666 10.419 10.419 10.419h6.64v42.383c0 5.755 4.666 10.419 10.419 10.419h370.429c5.754 0 10.419-4.664 10.419-10.419V228.065C460.163 222.31 455.498 217.646 449.744 217.646zM439.325 483.801h-120.51v-31.964h6.64c5.754 0 10.42-4.666 10.42-10.419v-33.713c0-5.755-4.666-10.419-10.42-10.419h-6.64V238.484h120.51V483.801zM89.734 451.837h40.697v31.964H89.734V451.837zM126.289 28.198h135.133v24.247H126.289V28.198zM236.442 483.801h-32.168v-31.964h32.168V483.801zM151.269 483.801v-31.964h32.167v31.964H151.269zM297.978 73.283v324.002h-19.779V218.407c0-5.754-4.665-10.419-10.419-10.419s-10.419 4.665-10.419 10.419v178.878h-27.675V218.407c0-5.754-4.665-10.419-10.419-10.419s-10.419 4.665-10.419 10.419v178.878h-29.984V218.407c0-5.754-4.665-10.419-10.419-10.419s-10.419 4.665-10.419 10.419v178.878h-27.675V218.407c0-5.754-4.665-10.419-10.419-10.419s-10.419 4.665-10.419 10.419v178.878H89.734V73.283H297.978zM72.675 418.124h242.361v12.875H72.675V418.124zM257.28 451.837h40.697v31.964H257.28V451.837z" fill="#1000fb" data-fill-palette-color="accent"></path></svg></g></svg></g></svg></g></svg></g></svg></g><g></g></svg></g></svg></g><g></g></svg></g><defs></defs></svg><rect width="154.5" height="154.5" fill="none" stroke="none" visibility="hidden"></rect></g></svg></g></svg>